<svg width="112" height="6" viewBox="0 0 112 6" fill="none" xmlns="http://www.w3.org/2000/svg">
<g clip-path="url(#clip0_21_3263)">
<path d="M9.24849 1.40299C11.1859 -0.467665 14.2569 -0.467662 16.1944 1.40299L17.8876 3.03785C19.0501 4.16024 20.8927 4.16024 22.0552 3.03785L23.7768 1.403C25.7143 -0.467658 28.7853 -0.467658 30.7228 1.403L32.416 3.03785C33.5785 4.16025 35.4211 4.16025 36.5836 3.03785L38.2768 1.403C40.2143 -0.467658 43.2853 -0.467655 45.2228 1.403L46.916 3.03786C48.0785 4.16025 49.9211 4.16025 51.0836 3.03786L52.755 1.42402C52.759 1.42024 52.7591 1.414 52.7553 1.41009C52.7515 1.40617 52.7517 1.39989 52.7556 1.39612C54.6934 -0.467658 57.7593 -0.465366 59.6944 1.403L61.3876 3.03785C62.5501 4.16025 64.3927 4.16025 65.5552 3.03785L67.2484 1.403C69.1859 -0.467661 72.2569 -0.467658 74.1944 1.403L75.8876 3.03785C77.0501 4.16025 78.8927 4.16025 80.0552 3.03785L81.7768 1.403C83.7143 -0.467654 86.7853 -0.467654 88.7228 1.403L90.416 3.03786C91.5785 4.16025 93.4211 4.16025 94.5836 3.03786L96.2768 1.403C98.2143 -0.467654 101.285 -0.467651 103.223 1.403L104.916 3.03786C106.079 4.16025 107.921 4.16025 109.084 3.03786L110.058 2.0976C110.455 1.71398 111.088 1.72509 111.472 2.1224C111.855 2.51972 111.844 3.15279 111.447 3.5364L110.473 4.47666C108.535 6.34732 105.464 6.34732 103.527 4.47666L101.834 2.84181C100.671 1.71941 98.8285 1.71941 97.666 2.8418L95.9728 4.47666C94.0353 6.34732 90.9643 6.34732 89.0268 4.47666L87.3336 2.8418C86.1711 1.71941 84.3285 1.71941 83.166 2.8418L81.4444 4.47666C79.5069 6.34731 76.4359 6.34731 74.4984 4.47666L72.8052 2.8418C71.6427 1.71941 69.8001 1.7194 68.6376 2.8418L66.9444 4.47665C65.0069 6.34731 61.9359 6.34731 59.9984 4.47665L58.3052 2.8418C57.15 1.72643 55.3232 1.71945 54.1596 2.82085C54.1556 2.82459 54.1554 2.83085 54.1592 2.83476C54.163 2.83865 54.1629 2.84485 54.159 2.8486L52.4728 4.47666C50.5353 6.34732 47.4643 6.34732 45.5268 4.47666L43.8336 2.8418C42.6711 1.71941 40.8285 1.71941 39.666 2.8418L37.9728 4.47666C36.0353 6.34731 32.9643 6.34731 31.0268 4.47666L29.3336 2.8418C28.1711 1.71941 26.3285 1.71941 25.166 2.8418L23.4444 4.47665C21.5069 6.34731 18.4359 6.34731 16.4984 4.47665L14.8052 2.8418C13.6427 1.7194 11.8001 1.7194 10.6376 2.84179L8.94443 4.47665C7.00697 6.34731 3.93595 6.34731 1.99849 4.47665L1.02465 3.53639C0.62733 3.15278 0.616223 2.51971 0.999837 2.12239C1.38345 1.72508 2.01652 1.71397 2.41383 2.09759L3.38768 3.03785C4.55016 4.16024 6.39276 4.16024 7.55524 3.03785L9.24849 1.40299Z" fill="#FFC700"/>
</g>
<defs>
<clipPath id="clip0_21_3263">
<rect width="112" height="6" fill="white"/>
</clipPath>
</defs>
</svg>
